<?xml version="1.0" encoding="utf-8"?><svg xmlns="http://www.w3.org/2000/svg" xmlns:xlink="http://www.w3.org/1999/xlink"><symbol viewBox="0 0 18 16" id="icons--arrow" xmlns="http://www.w3.org/2000/svg"><path d="M17.707 7.293a1 1 0 0 1 0 1.414l-6.364 6.364a1 1 0 0 1-1.414-1.414L15.586 8 9.929 2.343A1 1 0 0 1 11.343.93l6.364 6.364ZM17 9H.238V7H17v2Z"/></symbol><symbol fill="none" viewBox="0 0 18 18" id="icons--close" xmlns="http://www.w3.org/2000/svg"><path d="m1 1 8 8 8-8M1 17l8-8 8 8"/></symbol><symbol viewBox="0 0 20 20" id="icons--facebook" xmlns="http://www.w3.org/2000/svg"><g clip-path="url(#ca)"><path d="M13.33 3.32h1.827V.14a23.576 23.576 0 0 0-2.66-.14C9.864 0 8.06 1.656 8.06 4.7v2.8H5.156v3.555H8.06V20h3.562v-8.944h2.787l.443-3.555h-3.231V5.05c0-1.027.277-1.73 1.709-1.73Z"/></g><defs><clipPath id="ca"><path d="M0 0h20v20H0z"/></clipPath></defs></symbol><symbol viewBox="0 0 20 20" id="icons--instagram" xmlns="http://www.w3.org/2000/svg"><g clip-path="url(#da)"><path d="M19.98 5.88c-.046-1.063-.218-1.793-.464-2.426a4.88 4.88 0 0 0-1.157-1.774 4.922 4.922 0 0 0-1.77-1.153C15.952.281 15.226.11 14.163.063 13.093.012 12.753 0 10.037 0 7.322 0 6.982.012 5.915.059 4.853.105 4.122.277 3.49.523A4.88 4.88 0 0 0 1.715 1.68 4.924 4.924 0 0 0 .563 3.45C.316 4.087.145 4.813.098 5.876c-.051 1.07-.063 1.41-.063 4.126 0 2.715.012 3.055.059 4.122.047 1.063.219 1.793.465 2.426a4.932 4.932 0 0 0 1.156 1.774 4.92 4.92 0 0 0 1.77 1.152c.637.247 1.364.419 2.426.465 1.067.047 1.407.059 4.122.059 2.716 0 3.056-.012 4.122-.059 1.063-.046 1.793-.218 2.426-.464a5.116 5.116 0 0 0 2.927-2.927c.246-.637.418-1.364.465-2.426.047-1.067.058-1.407.058-4.122s-.004-3.055-.05-4.122Zm-1.8 8.166c-.044.977-.208 1.504-.344 1.856a3.318 3.318 0 0 1-1.9 1.898c-.35.137-.882.301-1.855.344-1.055.047-1.371.059-4.04.059-2.668 0-2.989-.012-4.04-.059-.977-.043-1.504-.207-1.856-.344a3.077 3.077 0 0 1-1.148-.746 3.11 3.11 0 0 1-.747-1.148c-.136-.352-.3-.883-.343-1.856-.047-1.055-.059-1.372-.059-4.04 0-2.669.012-2.99.059-4.04.043-.977.207-1.504.343-1.856A3.04 3.04 0 0 1 3 2.965a3.105 3.105 0 0 1 1.15-.746c.35-.137.882-.3 1.855-.344 1.055-.046 1.372-.058 4.04-.058 2.672 0 2.989.012 4.04.058.977.043 1.504.207 1.856.344.433.16.828.414 1.148.746.332.325.586.715.747 1.15.136.35.3.882.343 1.855.047 1.055.059 1.371.059 4.04 0 2.668-.012 2.98-.059 4.036Z"/><path d="M10.037 4.864A5.139 5.139 0 0 0 4.9 10.002a5.139 5.139 0 0 0 10.276 0 5.139 5.139 0 0 0-5.138-5.138Zm0 8.47a3.333 3.333 0 1 1 .001-6.666 3.333 3.333 0 0 1 0 6.667Zm6.541-8.673a1.2 1.2 0 1 1-2.4 0 1.2 1.2 0 0 1 2.4 0Z"/></g><defs><clipPath id="da"><path d="M0 0h20v20H0z"/></clipPath></defs></symbol><symbol viewBox="0 0 72 31" id="icons--logo" xmlns="http://www.w3.org/2000/svg"><path d="M3.906 7.422 2.72 6.703c-.745-.453-1.276-.898-1.594-1.336a2.576 2.576 0 0 1-.469-1.523c0-.86.297-1.558.89-2.094.6-.536 1.376-.805 2.329-.805.911 0 1.747.256 2.508.766v1.773c-.787-.755-1.633-1.132-2.54-1.132-.51 0-.929.12-1.257.359-.328.234-.492.536-.492.906 0 .328.12.636.36.922.239.287.627.586 1.163.899l1.196.703c1.333.791 2 1.802 2 3.03 0 .876-.295 1.587-.883 2.134-.584.547-1.344.82-2.282.82-1.078 0-2.06-.33-2.945-.992V9.148c.844 1.068 1.82 1.602 2.93 1.602.49 0 .896-.135 1.219-.406.328-.276.492-.62.492-1.031 0-.667-.48-1.297-1.438-1.891Zm12.32-6.336h1.563V12h-1.562V7.25h-6.133V12H8.53V1.086h1.563v4.719h6.133v-4.72ZM25.564.93c1.687 0 3.09.534 4.21 1.601 1.125 1.068 1.688 2.406 1.688 4.016 0 1.61-.568 2.943-1.703 4-1.13 1.052-2.557 1.578-4.281 1.578-1.646 0-3.019-.526-4.118-1.578-1.093-1.057-1.64-2.38-1.64-3.969 0-1.63.552-2.979 1.656-4.047C22.479 1.464 23.875.93 25.563.93Zm.062 1.484c-1.25 0-2.279.39-3.086 1.172-.802.781-1.203 1.779-1.203 2.992 0 1.177.404 2.156 1.21 2.938.808.78 1.819 1.171 3.032 1.171 1.219 0 2.235-.398 3.047-1.195.818-.797 1.227-1.789 1.227-2.976 0-1.157-.41-2.128-1.227-2.914-.813-.792-1.813-1.188-3-1.188ZM33.289 12V1.07h3.461c1.042 0 1.872.282 2.492.844.62.563.93 1.318.93 2.266 0 .635-.159 1.198-.477 1.687-.317.49-.752.847-1.304 1.07-.552.22-1.344.329-2.375.329h-1.157V12h-1.57Zm3.188-9.54h-1.618v3.415h1.711c.636 0 1.125-.148 1.47-.445.343-.302.515-.732.515-1.29 0-1.12-.693-1.68-2.078-1.68ZM11.25 27.93c0 .932-.32 1.677-.96 2.234-.636.557-1.527.836-2.673.836H1.36V20.172h5.235c.677 0 1.265.065 1.765.195.506.13.912.31 1.22.54.306.223.536.489.687.796.15.307.226.643.226 1.008a2.66 2.66 0 0 1-.82 1.93c-.23.213-.461.364-.695.453.74.291 1.302.661 1.687 1.11.39.442.586 1.017.586 1.726Zm-3.813-4.64c0-.522-.171-.868-.515-1.04-.344-.172-.88-.258-1.61-.258h-.687v2.594h.703c.745 0 1.281-.086 1.61-.258.333-.172.5-.518.5-1.039Zm.532 4.507c0-.927-.672-1.39-2.016-1.39H4.625v2.773h1.328c1.344 0 2.016-.461 2.016-1.383ZM24.766 31h-3.344l-.883-2.195h-4.703L14.937 31h-3.343l4.789-10.828h3.61L24.765 31Zm-4.977-4.078-1.586-3.953-1.601 3.953h3.187ZM37.594 31h-3.985l-4.14-5.07V31h-3.266V20.172h3.266v4.844l3.922-4.844h3.547l-4.032 5.07L37.594 31Zm9.586 0h-8.164V20.172h8.03v2.172h-4.765v1.984h4.547v2.18h-4.547v2.312h4.899V31Zm12.68 0h-3.508l-.852-1.922c-.313-.703-.594-1.216-.844-1.539-.25-.328-.495-.536-.734-.625-.234-.094-.54-.14-.914-.14h-.367V31h-3.266V20.172h5.555c.895 0 1.63.182 2.203.547.573.364.984.807 1.234 1.328.255.52.383 1.015.383 1.484 0 .547-.107 1.01-.32 1.39-.209.376-.43.65-.664.821a6.626 6.626 0 0 1-.79.492c.35.203.636.446.86.727.23.276.539.838.93 1.687L59.859 31Zm-4.438-7.406c0-.5-.164-.85-.492-1.047-.328-.198-.862-.297-1.602-.297h-.687v2.61h.703c.797 0 1.34-.087 1.633-.258.296-.178.445-.514.445-1.008Zm16.016-3.422-4.243 5.867V31H63.93v-4.898l-4.32-5.93H63l2.484 3.406 2.493-3.406h3.46Z"/></symbol></svg>